<?xml version="1.0" encoding="UTF-8" standalone="no"?>
<svg
   xmlns:svg="http://www.w3.org/2000/svg"
   xmlns="http://www.w3.org/2000/svg"
   width="64"
   height="64"
   viewBox="0 0 16.933333 16.933333"
   version="1.1"
   id="svg8"
   >
  <defs
     id="defs2" />
  <metadata
     id="metadata5">
    </metadata>
  <g
     id="layer1"
     transform="translate(0,-280.06667)"
     style="fill:#ffffff">
    <text
       xml:space="preserve"
       style="font-style:normal;font-weight:normal;font-size:10.58333302px;line-height:1.25;font-family:sans-serif;letter-spacing:0px;word-spacing:0px;fill:#ffffff;fill-opacity:1;stroke:none;stroke-width:0.26458332"
       x="27.214285"
       y="78.529755"
       id="text12"><tspan
         id="tspan10"
         x="27.214285"
         y="87.893524"
         style="font-style:normal;font-variant:normal;font-weight:normal;font-stretch:normal;font-size:22.57777786px;font-family:Monoton;-inkscape-font-specification:'Monoton, Normal';font-variant-ligatures:normal;font-variant-caps:normal;font-variant-numeric:normal;font-feature-settings:normal;text-align:start;writing-mode:lr-tb;text-anchor:start;stroke-width:0.26458332;fill:#ffffff" /></text>
    <path
       style="font-style:normal;font-variant:normal;font-weight:normal;font-stretch:normal;font-size:medium;line-height:1.25;font-family:Monoton;-inkscape-font-specification:Monoton;letter-spacing:0px;word-spacing:0px;fill:#ffffff;fill-opacity:1;stroke:none;stroke-width:0.31815037"
       id="path3846"
       d="m 77.505859,56.976562 3.542969,8.947266 h 0.484375 l 3.535156,-8.947266 h -0.478515 l -3.298828,8.345704 -3.300782,-8.345704 z m 0.962891,0 2.876953,7.283204 0.255859,-0.572266 -2.654296,-6.710938 z m 0.964844,0 2.410156,6.101563 0.236328,-0.615234 -2.162109,-5.486329 z m 0.96289,0 1.919922,4.871094 0.236328,-0.626953 L 80.875,56.976562 Z m 5.150391,0 -3.535156,8.947266 h 0.478515 l 3.541016,-8.947266 z m 0.96875,0 -3.541016,8.947266 h 0.478516 l 3.541016,-8.947266 z m 0.957031,0 -3.535156,8.947266 h 0.478516 l 3.542968,-8.947266 z"
       transform="matrix(1.1263577,0,0,1.3159281,-84.719634,207.6693)" />
  </g>
</svg>
